# Blender 4.3.2
# www.blender.org
mtllib slope.mtl
o Cube.001
v 0.666667 -0.666666 1.000000
v 0.666667 1.333334 1.000000
v -1.333333 1.333333 -1.000000
v -1.333332 -0.666667 -1.000000
v 0.666667 -0.666666 -1.000000
v 0.666667 1.333334 -1.000000
vn -0.0000 -0.0000 -1.0000
vn -0.6324 -0.4472 0.6324
vn -0.0000 -1.0000 -0.0000
vn -0.6325 -0.4472 0.6325
vn -0.6325 0.4472 0.6325
vn -0.6324 0.4472 0.6324
vn -0.0000 1.0000 -0.0000
vn 1.0000 -0.0000 -0.0000
vt 0.000087 0.250043
vt 0.250043 0.000087
vt 0.250043 0.250043
vt 0.000087 0.000087
vt 0.500000 0.500000
vt 0.500000 0.250043
vt 0.250043 0.500000
s 1
f 5/1/1 3/2/1 6/3/1
f 4/4/2 5/1/3 1/5/4
f 3/2/5 2/6/6 6/3/7
f 5/1/1 4/4/1 3/2/1
f 3/2/5 1/5/4 2/6/6
f 5/7/8 2/6/8 1/5/8
f 3/2/5 4/4/2 1/5/4
f 5/7/8 6/3/8 2/6/8
